<svg data-v-423bf9ae="" xmlns="http://www.w3.org/2000/svg" viewBox="0 0 552 112" class="iconLeft"><!----><!----><!----><g data-v-423bf9ae="" id="2041bfa3-e0c9-41cc-89f7-f5aa9dfb6d6d" fill="#000000" transform="matrix(5.6872042027481005,0,0,5.6872042027481005,116.52990642151482,7.185664884672505)"><path d="M3.39 5.63L8.22 5.63L8.22 3.92L1.19 3.92L1.19 13.58L3.39 13.58L3.39 9.59L7.76 9.59L7.76 7.88L3.39 7.88ZM12.74 5.92C10.26 5.92 8.81 7.52 8.81 9.84C8.81 12.17 10.26 13.78 12.74 13.78C15.20 13.78 16.67 12.17 16.67 9.84C16.67 7.52 15.20 5.92 12.74 5.92ZM12.74 12.26C11.69 12.26 11.06 11.40 11.06 9.84C11.06 8.29 11.69 7.43 12.74 7.43C13.78 7.43 14.41 8.29 14.41 9.84C14.41 11.40 13.78 12.26 12.74 12.26ZM21.32 5.92C18.84 5.92 17.39 7.52 17.39 9.84C17.39 12.17 18.84 13.78 21.32 13.78C23.79 13.78 25.26 12.17 25.26 9.84C25.26 7.52 23.79 5.92 21.32 5.92ZM21.32 12.26C20.27 12.26 19.64 11.40 19.64 9.84C19.64 8.29 20.27 7.43 21.32 7.43C22.36 7.43 22.99 8.29 22.99 9.84C22.99 11.40 22.36 12.26 21.32 12.26ZM33.95 3.29L31.75 3.29L31.75 7.10L31.26 6.31C30.88 6.08 30.14 5.92 29.53 5.92C27.61 5.92 25.97 7.32 25.97 10.00C25.97 12.21 27.22 13.78 29.27 13.78C30.03 13.78 30.77 13.61 31.19 13.29L31.75 12.46L31.75 13.58L33.95 13.58ZM29.97 12.26C28.94 12.26 28.22 11.34 28.22 9.87C28.22 8.25 28.98 7.43 30.04 7.43C30.87 7.43 31.75 7.99 31.75 9.59L31.75 9.94C31.75 11.65 30.97 12.26 29.97 12.26ZM38.47 5.92C36.60 5.92 35.36 6.82 35.36 8.27C35.36 9.55 36.27 10.18 37.67 10.53C38.99 10.84 39.47 11.13 39.47 11.66C39.47 12.14 39.05 12.36 38.51 12.36C37.90 12.36 37.39 11.98 37.24 11.28L35.07 11.28C35.27 12.96 36.60 13.78 38.50 13.78C40.25 13.78 41.66 13.05 41.66 11.49C41.66 10.09 40.74 9.49 39.30 9.13C37.97 8.79 37.56 8.51 37.56 8.01C37.56 7.62 37.86 7.32 38.33 7.32C38.88 7.32 39.20 7.67 39.33 8.29L41.50 8.29C41.31 6.93 40.28 5.92 38.47 5.92ZM46.13 5.92C44.02 5.92 42.31 7.35 42.31 9.91C42.31 12.45 43.88 13.78 45.95 13.78C47.89 13.78 49.32 12.81 49.62 10.93L47.45 10.93C47.28 11.80 46.75 12.26 46.07 12.26C45.16 12.26 44.56 11.51 44.56 9.77C44.56 8.19 45.15 7.43 46.07 7.43C46.80 7.43 47.32 7.85 47.47 8.88L49.62 8.88C49.50 7.21 48.22 5.92 46.13 5.92ZM54.91 5.92C54.47 5.92 53.93 6.12 53.55 6.51L52.99 7.55L52.99 6.12L50.79 6.12L50.79 13.58L52.99 13.58L52.99 10.46C52.99 8.34 53.73 7.64 55.47 7.76L55.47 5.98C55.30 5.95 55.15 5.92 54.91 5.92ZM57.46 3.23C56.76 3.23 56.29 3.67 56.29 4.34C56.29 5.03 56.76 5.46 57.46 5.46C58.16 5.46 58.63 5.03 58.63 4.34C58.63 3.67 58.16 3.23 57.46 3.23ZM58.56 13.58L58.56 6.12L56.36 6.12L56.36 13.58ZM64.90 5.92C64.15 5.92 63.41 6.09 62.99 6.41L62.43 7.24L62.43 3.29L60.23 3.29L60.23 13.58L62.43 13.58L62.43 12.60L62.92 13.38C63.29 13.62 64.04 13.78 64.65 13.78C66.57 13.78 68.21 12.38 68.21 9.69C68.21 7.49 66.96 5.92 64.90 5.92ZM64.13 12.26C63.29 12.26 62.43 11.70 62.43 10.09L62.43 9.76C62.43 8.05 63.20 7.43 64.20 7.43C65.24 7.43 65.95 8.36 65.95 9.83C65.95 11.45 65.20 12.26 64.13 12.26ZM76.41 9.72C76.41 7.73 75.18 5.92 72.80 5.92C70.43 5.92 68.94 7.63 68.94 9.87C68.94 12.50 70.57 13.78 72.66 13.78C74.48 13.78 75.88 12.87 76.29 11.14L74.12 11.14C73.99 11.84 73.47 12.26 72.70 12.26C71.88 12.26 71.26 11.84 71.13 10.42L76.37 10.42C76.40 10.15 76.41 9.91 76.41 9.72ZM72.70 7.43C73.51 7.43 74.00 7.98 74.13 9.03L71.19 9.03C71.37 7.92 71.92 7.43 72.70 7.43Z"></path></g><defs data-v-423bf9ae=""><linearGradient data-v-423bf9ae="" gradientTransform="rotate(25)" id="15a68c5b-08b9-44b3-bcec-e10e3fa5557a" x1="0%" y1="0%" x2="100%" y2="0%"><stop data-v-423bf9ae="" offset="0%" style="stop-color: rgb(1, 100, 139); stop-opacity: 1;"></stop><stop data-v-423bf9ae="" offset="100%" style="stop-color: rgb(91, 208, 164); stop-opacity: 1;"></stop></linearGradient></defs><g data-v-423bf9ae="" id="38e1926d-e6a5-473d-a7e1-27c53717895d" transform="matrix(1.111108907063802,0,0,1.111108907063802,0.3511446709734969,0.4447534329471381)" stroke="none" fill="url(#15a68c5b-08b9-44b3-bcec-e10e3fa5557a)"><path d="M83.281 10.474l-13.139 12.24H22.824L9.692 10.474S16.229 1.34 27.004.142C37.551-1.031 41.21 5.441 46.49 5.688c5.268-.248 8.952-6.719 19.479-5.547 10.788 1.198 17.312 10.333 17.312 10.333zM73.698 30.578H19.276S-6.85 51.144 1.73 89.049c0 0 2.858 10.95 15.997 10.95h57.54c13.112 0 15.971-10.95 15.971-10.95 8.58-37.904-17.54-58.471-17.54-58.471zm-5.17 11.595s-6.374 18.848-12.298 12.93c-5.898-5.898 10.352-12.5 12.298-12.93zm-15.176-3.626s-4.245 3.359-1.309 11.133c3.294 8.718-2.917 10.755-5.41 8.255-5.573-5.579 4.7-18.718 6.719-19.388zm-8.034 8.021s-4.245 3.373-1.309 11.133c3.301 8.73-2.917 10.769-5.417 8.275C33 60.39 43.3 47.238 45.318 46.568zM32.395 81.919l-7.787 6.557c-1.562 1.575-3.47-1.621-2.728-2.37l6.614-8.079c.671-.684.951.794 2.025 1.881 1.075 1.061 2.546 1.342 1.876 2.011zm-2.084-7.675c-5.586-5.566 4.694-18.718 6.739-19.388 0 0-4.251 3.359-1.315 11.133 3.3 8.718-2.937 10.768-5.424 8.255zm6.009 6.015c-2.52-2.513-.475-8.736 8.255-5.442 7.754 2.942 11.133-1.296 11.133-1.296-.657 2.006-13.814 12.306-19.388 6.738zm8.269-8.287c-2.513-2.5-.456-8.718 8.255-5.443 7.78 2.943 11.146-1.282 11.146-1.282-.677 2.011-13.822 12.304-19.401 6.725zm8.034-8.034c-2.5-2.5-.475-8.725 8.275-5.43 7.74 2.956 11.133-1.296 11.133-1.296-.677 2.026-13.835 12.305-19.408 6.726z"></path></g><!----></svg>